<?xml version="1.0" encoding="iso-8859-1"?>
<!-- Generator: Adobe Illustrator 19.0.0, SVG Export Plug-In . SVG Version: 6.00 Build 0)  -->
<svg version="1.1" id="Layer_1" xmlns="http://www.w3.org/2000/svg" xmlns:xlink="http://www.w3.org/1999/xlink" x="0px" y="0px"
	 viewBox="0 0 512 512" style="enable-background:new 0 0 512 512;" xml:space="preserve">
<g>
	<g>
		<path d="M272.563,375.769V512H407.12c11.202,0,20.283-9.081,20.283-20.283V375.769H272.563z"/>
	</g>
</g>
<g>
	<g>
		<path d="M84.597,375.769v115.948c0,11.202,9.081,20.283,20.283,20.283h134.557V375.769H84.597z"/>
	</g>
</g>
<g>
	<g>
		<path d="M437.973,125.012h-61.862c0.358-0.334,0.709-0.67,1.046-1.007c28.319-28.318,28.319-74.396,0-102.715
			c-28.386-28.386-74.328-28.388-102.715,0c-7.108,7.108-13.312,18.679-18.738,35.005c-5.426-16.326-11.63-27.897-18.738-35.005
			c-28.386-28.386-74.328-28.388-102.715,0c-28.319,28.319-28.319,74.397,0,102.715c0.338,0.338,0.689,0.673,1.046,1.007h-61.27
			c-11.202,0-20.283,9.081-20.283,20.283v41.707c0,11.202,9.081,20.283,20.283,20.283h10.569v135.359h154.841V207.285h33.125
			v135.359h154.841V207.285h10.569c11.202,0,20.283-9.081,20.283-20.283v-41.707C458.256,134.093,449.175,125.012,437.973,125.012z
			 M157.673,100.582c-15.403-15.403-15.403-40.466,0-55.869c15.44-15.439,40.428-15.44,55.869,0
			c9.774,9.774,18.569,47.564,23.333,79.208C205.245,119.165,167.466,110.375,157.673,100.582z M353.733,100.582
			c-9.774,9.774-47.564,18.569-79.208,23.333c4.757-31.631,13.547-69.41,23.339-79.203c15.44-15.439,40.428-15.44,55.869,0
			C369.136,60.116,369.136,85.179,353.733,100.582z"/>
	</g>
</g>
<g>
</g>
<g>
</g>
<g>
</g>
<g>
</g>
<g>
</g>
<g>
</g>
<g>
</g>
<g>
</g>
<g>
</g>
<g>
</g>
<g>
</g>
<g>
</g>
<g>
</g>
<g>
</g>
<g>
</g>
</svg>
